<svg width="896" height="288" viewBox="0 0 896 288" fill="none" xmlns="http://www.w3.org/2000/svg">
<mask id="mask0_6_71" style="mask-type:luminance" maskUnits="userSpaceOnUse" x="0" y="0" width="896" height="288">
<path d="M0 32C0 14.3269 14.3269 0 32 0H864C881.673 0 896 14.3269 896 32V288H0V32Z" fill="white"/>
</mask>
<g mask="url(#mask0_6_71)">
<path d="M896 0H0V288H896V0Z" fill="url(#paint0_linear_6_71)"/>
<mask id="mask1_6_71" style="mask-type:alpha" maskUnits="userSpaceOnUse" x="0" y="0" width="896" height="288">
<path d="M896 0H0V288H896V0Z" fill="url(#paint1_linear_6_71)"/>
</mask>
<g mask="url(#mask1_6_71)">
<path d="M32.5001 0V288M64.5001 0V288M96.5001 0V288M128.5 0V288M160.5 0V288M192.5 0V288M224.5 0V288M256.5 0V288M288.5 0V288M320.5 0V288M352.5 0V288M384.5 0V288M416.5 0V288M448.5 0V288M480.5 0V288M512.5 0V288M544.5 0V288M576.5 0V288M608.5 0V288M640.5 0V288M672.5 0V288M704.5 0V288M736.5 0V288M768.5 0V288M800.5 0V288M832.5 0V288M864.5 0V288M0 31.5H896M0 63.5H896M0 95.5H896M0 127.5H896M0 159.5H896M0 191.5H896M0 223.5H896M0 255.5H896" stroke="white" stroke-opacity="0.04" stroke-dasharray="5 5"/>
</g>
</g>
<path d="M247.492 184H244.431V174.545H247.589C248.515 174.545 249.311 174.735 249.976 175.113C250.64 175.489 251.15 176.029 251.504 176.734C251.861 177.435 252.039 178.277 252.039 179.259C252.039 180.244 251.859 181.09 251.499 181.798C251.142 182.506 250.625 183.051 249.948 183.432C249.271 183.811 248.452 184 247.492 184ZM245.858 182.754H247.414C248.134 182.754 248.732 182.618 249.209 182.347C249.686 182.073 250.043 181.678 250.28 181.161C250.517 180.641 250.636 180.007 250.636 179.259C250.636 178.517 250.517 177.888 250.28 177.371C250.046 176.854 249.697 176.461 249.232 176.194C248.768 175.926 248.191 175.792 247.501 175.792H245.858V182.754ZM255.766 184.157C255.317 184.157 254.91 184.074 254.547 183.908C254.184 183.738 253.896 183.494 253.684 183.174C253.475 182.854 253.37 182.461 253.37 181.996C253.37 181.596 253.447 181.267 253.601 181.009C253.755 180.75 253.962 180.545 254.224 180.395C254.486 180.244 254.778 180.13 255.101 180.053C255.424 179.976 255.754 179.917 256.089 179.877C256.514 179.828 256.858 179.788 257.123 179.757C257.388 179.724 257.58 179.67 257.7 179.596C257.82 179.522 257.88 179.402 257.88 179.236V179.203C257.88 178.8 257.766 178.488 257.539 178.266C257.314 178.045 256.978 177.934 256.532 177.934C256.068 177.934 255.701 178.037 255.434 178.243C255.169 178.446 254.986 178.673 254.884 178.922L253.587 178.626C253.741 178.196 253.965 177.848 254.261 177.583C254.559 177.315 254.903 177.121 255.29 177.001C255.678 176.878 256.086 176.817 256.514 176.817C256.797 176.817 257.097 176.851 257.414 176.918C257.734 176.983 258.033 177.103 258.31 177.278C258.59 177.454 258.819 177.705 258.997 178.031C259.176 178.354 259.265 178.774 259.265 179.291V184H257.917V183.031H257.862C257.773 183.209 257.639 183.384 257.46 183.557C257.282 183.729 257.052 183.872 256.772 183.986C256.492 184.1 256.157 184.157 255.766 184.157ZM256.066 183.049C256.448 183.049 256.774 182.974 257.045 182.823C257.319 182.672 257.526 182.475 257.668 182.232C257.813 181.986 257.885 181.723 257.885 181.442V180.528C257.836 180.578 257.74 180.624 257.599 180.667C257.46 180.707 257.302 180.742 257.123 180.773C256.945 180.801 256.771 180.827 256.601 180.852C256.432 180.873 256.291 180.892 256.177 180.907C255.909 180.941 255.664 180.998 255.443 181.078C255.224 181.158 255.049 181.273 254.916 181.424C254.787 181.572 254.723 181.769 254.723 182.015C254.723 182.357 254.849 182.615 255.101 182.79C255.353 182.963 255.675 183.049 256.066 183.049ZM264.414 176.909V178.017H260.54V176.909H264.414ZM261.579 175.21H262.96V181.918C262.96 182.186 263 182.387 263.08 182.523C263.16 182.655 263.263 182.746 263.389 182.795C263.518 182.841 263.658 182.864 263.809 182.864C263.92 182.864 264.017 182.857 264.1 182.841C264.183 182.826 264.248 182.814 264.294 182.804L264.543 183.945C264.463 183.975 264.349 184.006 264.201 184.037C264.054 184.071 263.869 184.089 263.647 184.092C263.284 184.098 262.946 184.034 262.632 183.898C262.318 183.763 262.064 183.554 261.87 183.271C261.676 182.987 261.579 182.632 261.579 182.204V175.21ZM268.004 184.157C267.555 184.157 267.149 184.074 266.785 183.908C266.422 183.738 266.134 183.494 265.922 183.174C265.713 182.854 265.608 182.461 265.608 181.996C265.608 181.596 265.685 181.267 265.839 181.009C265.993 180.75 266.201 180.545 266.462 180.395C266.724 180.244 267.016 180.13 267.339 180.053C267.663 179.976 267.992 179.917 268.327 179.877C268.752 179.828 269.097 179.788 269.361 179.757C269.626 179.724 269.818 179.67 269.938 179.596C270.059 179.522 270.119 179.402 270.119 179.236V179.203C270.119 178.8 270.005 178.488 269.777 178.266C269.552 178.045 269.217 177.934 268.771 177.934C268.306 177.934 267.94 178.037 267.672 178.243C267.407 178.446 267.224 178.673 267.122 178.922L265.825 178.626C265.979 178.196 266.204 177.848 266.499 177.583C266.798 177.315 267.141 177.121 267.529 177.001C267.916 176.878 268.324 176.817 268.752 176.817C269.035 176.817 269.335 176.851 269.652 176.918C269.972 176.983 270.271 177.103 270.548 177.278C270.828 177.454 271.057 177.705 271.236 178.031C271.414 178.354 271.503 178.774 271.503 179.291V184H270.155V183.031H270.1C270.011 183.209 269.877 183.384 269.698 183.557C269.52 183.729 269.291 183.872 269.011 183.986C268.73 184.1 268.395 184.157 268.004 184.157ZM268.304 183.049C268.686 183.049 269.012 182.974 269.283 182.823C269.557 182.672 269.765 182.475 269.906 182.232C270.051 181.986 270.123 181.723 270.123 181.442V180.528C270.074 180.578 269.978 180.624 269.837 180.667C269.698 180.707 269.54 180.742 269.361 180.773C269.183 180.801 269.009 180.827 268.84 180.852C268.67 180.873 268.529 180.892 268.415 180.907C268.147 180.941 267.903 180.998 267.681 181.078C267.463 181.158 267.287 181.273 267.155 181.424C267.025 181.572 266.961 181.769 266.961 182.015C266.961 182.357 267.087 182.615 267.339 182.79C267.592 182.963 267.913 183.049 268.304 183.049ZM276.893 184V174.545H282.821V175.773H278.32V178.654H282.511V179.877H278.32V182.772H282.876V184H276.893ZM285.996 179.79V184H284.615V176.909H285.94V178.063H286.028C286.191 177.688 286.447 177.386 286.794 177.158C287.145 176.931 287.587 176.817 288.119 176.817C288.603 176.817 289.026 176.918 289.389 177.121C289.752 177.321 290.034 177.62 290.234 178.017C290.434 178.414 290.534 178.905 290.534 179.49V184H289.153V179.656C289.153 179.142 289.02 178.74 288.752 178.451C288.484 178.159 288.116 178.012 287.648 178.012C287.328 178.012 287.044 178.082 286.794 178.22C286.548 178.359 286.353 178.562 286.208 178.83C286.067 179.094 285.996 179.414 285.996 179.79ZM295.358 186.807C294.795 186.807 294.31 186.733 293.904 186.585C293.501 186.438 293.171 186.242 292.916 185.999C292.66 185.756 292.47 185.49 292.343 185.2L293.53 184.711C293.613 184.846 293.724 184.989 293.862 185.14C294.004 185.294 294.195 185.425 294.435 185.533C294.678 185.64 294.99 185.694 295.372 185.694C295.895 185.694 296.327 185.567 296.669 185.311C297.011 185.059 297.181 184.656 297.181 184.102V182.707H297.094C297.011 182.858 296.891 183.026 296.734 183.211C296.58 183.395 296.367 183.555 296.097 183.691C295.826 183.826 295.473 183.894 295.039 183.894C294.479 183.894 293.975 183.763 293.525 183.501C293.079 183.237 292.725 182.847 292.463 182.333C292.205 181.816 292.076 181.181 292.076 180.427C292.076 179.673 292.203 179.027 292.459 178.488C292.717 177.949 293.071 177.537 293.521 177.251C293.97 176.961 294.479 176.817 295.049 176.817C295.489 176.817 295.844 176.891 296.115 177.038C296.386 177.183 296.597 177.352 296.748 177.546C296.901 177.74 297.02 177.911 297.103 178.059H297.205V176.909H298.557V184.157C298.557 184.766 298.416 185.266 298.132 185.657C297.849 186.048 297.466 186.337 296.983 186.525C296.503 186.713 295.961 186.807 295.358 186.807ZM295.344 182.749C295.741 182.749 296.077 182.657 296.35 182.472C296.627 182.284 296.837 182.016 296.978 181.669C297.123 181.318 297.195 180.898 297.195 180.408C297.195 179.931 297.125 179.511 296.983 179.148C296.841 178.785 296.634 178.502 296.36 178.299C296.086 178.092 295.747 177.989 295.344 177.989C294.929 177.989 294.582 178.097 294.305 178.312C294.028 178.525 293.819 178.814 293.678 179.18C293.539 179.547 293.47 179.956 293.47 180.408C293.47 180.873 293.541 181.281 293.682 181.632C293.824 181.983 294.033 182.257 294.31 182.453C294.59 182.65 294.935 182.749 295.344 182.749ZM300.408 184V176.909H301.789V184H300.408ZM301.105 175.815C300.865 175.815 300.659 175.735 300.487 175.575C300.318 175.412 300.233 175.218 300.233 174.993C300.233 174.766 300.318 174.572 300.487 174.412C300.659 174.248 300.865 174.167 301.105 174.167C301.346 174.167 301.55 174.248 301.719 174.412C301.892 174.572 301.978 174.766 301.978 174.993C301.978 175.218 301.892 175.412 301.719 175.575C301.55 175.735 301.346 175.815 301.105 175.815ZM305.026 179.79V184H303.646V176.909H304.971V178.063H305.058C305.221 177.688 305.477 177.386 305.825 177.158C306.176 176.931 306.617 176.817 307.15 176.817C307.633 176.817 308.056 176.918 308.419 177.121C308.782 177.321 309.064 177.62 309.264 178.017C309.464 178.414 309.564 178.905 309.564 179.49V184H308.184V179.656C308.184 179.142 308.05 178.74 307.782 178.451C307.514 178.159 307.147 178.012 306.679 178.012C306.359 178.012 306.074 178.082 305.825 178.22C305.578 178.359 305.383 178.562 305.238 178.83C305.097 179.094 305.026 179.414 305.026 179.79ZM314.471 184.143C313.773 184.143 313.171 183.994 312.666 183.695C312.165 183.394 311.777 182.971 311.503 182.426C311.232 181.878 311.097 181.236 311.097 180.501C311.097 179.774 311.232 179.134 311.503 178.58C311.777 178.026 312.158 177.594 312.648 177.283C313.14 176.972 313.716 176.817 314.374 176.817C314.774 176.817 315.162 176.883 315.538 177.015C315.913 177.148 316.25 177.355 316.549 177.638C316.847 177.922 317.083 178.289 317.255 178.742C317.427 179.191 317.514 179.737 317.514 180.381V180.87H311.877V179.836H316.161C316.161 179.473 316.087 179.151 315.939 178.871C315.792 178.588 315.584 178.365 315.316 178.202C315.051 178.039 314.741 177.957 314.384 177.957C313.996 177.957 313.657 178.052 313.368 178.243C313.082 178.431 312.86 178.677 312.703 178.982C312.549 179.283 312.472 179.611 312.472 179.965V180.773C312.472 181.247 312.555 181.65 312.722 181.983C312.891 182.315 313.126 182.569 313.428 182.744C313.73 182.917 314.082 183.003 314.485 183.003C314.747 183.003 314.985 182.966 315.201 182.892C315.416 182.815 315.602 182.701 315.759 182.55C315.916 182.4 316.036 182.213 316.119 181.992L317.426 182.227C317.321 182.612 317.133 182.949 316.863 183.238C316.595 183.525 316.258 183.748 315.852 183.908C315.448 184.065 314.988 184.143 314.471 184.143ZM322.101 184.143C321.403 184.143 320.801 183.994 320.296 183.695C319.795 183.394 319.407 182.971 319.133 182.426C318.862 181.878 318.727 181.236 318.727 180.501C318.727 179.774 318.862 179.134 319.133 178.58C319.407 178.026 319.788 177.594 320.278 177.283C320.77 176.972 321.346 176.817 322.004 176.817C322.404 176.817 322.792 176.883 323.168 177.015C323.543 177.148 323.88 177.355 324.179 177.638C324.477 177.922 324.713 178.289 324.885 178.742C325.057 179.191 325.143 179.737 325.143 180.381V180.87H319.507V179.836H323.791C323.791 179.473 323.717 179.151 323.569 178.871C323.422 178.588 323.214 178.365 322.946 178.202C322.681 178.039 322.371 177.957 322.013 177.957C321.626 177.957 321.287 178.052 320.998 178.243C320.712 178.431 320.49 178.677 320.333 178.982C320.179 179.283 320.102 179.611 320.102 179.965V180.773C320.102 181.247 320.185 181.65 320.352 181.983C320.521 182.315 320.756 182.569 321.058 182.744C321.359 182.917 321.712 183.003 322.115 183.003C322.377 183.003 322.615 182.966 322.831 182.892C323.046 182.815 323.232 182.701 323.389 182.55C323.546 182.4 323.666 182.213 323.749 181.992L325.056 182.227C324.951 182.612 324.763 182.949 324.493 183.238C324.225 183.525 323.888 183.748 323.482 183.908C323.078 184.065 322.618 184.143 322.101 184.143ZM326.675 184V176.909H328.009V178.036H328.083C328.212 177.654 328.44 177.354 328.766 177.135C329.096 176.914 329.468 176.803 329.883 176.803C329.97 176.803 330.071 176.806 330.188 176.812C330.308 176.818 330.402 176.826 330.47 176.835V178.156C330.414 178.14 330.316 178.123 330.174 178.105C330.033 178.083 329.891 178.072 329.75 178.072C329.423 178.072 329.132 178.142 328.877 178.28C328.625 178.416 328.425 178.605 328.277 178.848C328.129 179.088 328.055 179.362 328.055 179.67V184H326.675ZM339.455 180.782C339.202 180.782 338.985 180.693 338.804 180.515C338.622 180.333 338.531 180.114 338.531 179.859C338.531 179.607 338.622 179.391 338.804 179.213C338.985 179.031 339.202 178.94 339.455 178.94C339.707 178.94 339.924 179.031 340.105 179.213C340.287 179.391 340.378 179.607 340.378 179.859C340.378 180.028 340.335 180.184 340.249 180.325C340.165 180.464 340.055 180.575 339.916 180.658C339.778 180.741 339.624 180.782 339.455 180.782ZM350.935 177.029C350.885 176.592 350.682 176.254 350.325 176.013C349.968 175.77 349.519 175.649 348.977 175.649C348.589 175.649 348.254 175.71 347.971 175.833C347.688 175.953 347.468 176.12 347.311 176.332C347.157 176.541 347.08 176.78 347.08 177.048C347.08 177.272 347.132 177.466 347.237 177.629C347.344 177.792 347.485 177.929 347.657 178.04C347.832 178.148 348.02 178.239 348.22 178.312C348.42 178.383 348.612 178.442 348.797 178.488L349.72 178.728C350.022 178.802 350.331 178.902 350.648 179.028C350.965 179.154 351.259 179.32 351.53 179.527C351.801 179.733 352.019 179.988 352.186 180.293C352.355 180.598 352.44 180.962 352.44 181.387C352.44 181.923 352.301 182.398 352.024 182.814C351.75 183.229 351.352 183.557 350.828 183.797C350.308 184.037 349.679 184.157 348.94 184.157C348.232 184.157 347.62 184.045 347.103 183.82C346.586 183.595 346.181 183.277 345.889 182.864C345.596 182.449 345.435 181.956 345.404 181.387H346.835C346.863 181.729 346.974 182.013 347.168 182.241C347.364 182.466 347.615 182.634 347.92 182.744C348.228 182.852 348.565 182.906 348.931 182.906C349.334 182.906 349.693 182.843 350.007 182.717C350.324 182.587 350.573 182.409 350.755 182.181C350.936 181.95 351.027 181.681 351.027 181.373C351.027 181.093 350.947 180.864 350.787 180.685C350.63 180.507 350.416 180.359 350.145 180.242C349.877 180.125 349.574 180.022 349.236 179.933L348.119 179.628C347.361 179.422 346.761 179.119 346.318 178.719C345.878 178.319 345.658 177.789 345.658 177.131C345.658 176.586 345.806 176.11 346.101 175.704C346.397 175.298 346.797 174.982 347.301 174.758C347.806 174.53 348.376 174.416 349.009 174.416C349.65 174.416 350.214 174.529 350.704 174.753C351.196 174.978 351.584 175.287 351.867 175.681C352.15 176.072 352.298 176.521 352.31 177.029H350.935ZM357.02 184.143C356.355 184.143 355.775 183.991 355.28 183.686C354.784 183.381 354.4 182.955 354.126 182.407C353.852 181.859 353.715 181.219 353.715 180.487C353.715 179.751 353.852 179.108 354.126 178.557C354.4 178.006 354.784 177.578 355.28 177.274C355.775 176.969 356.355 176.817 357.02 176.817C357.685 176.817 358.265 176.969 358.761 177.274C359.256 177.578 359.641 178.006 359.915 178.557C360.189 179.108 360.326 179.751 360.326 180.487C360.326 181.219 360.189 181.859 359.915 182.407C359.641 182.955 359.256 183.381 358.761 183.686C358.265 183.991 357.685 184.143 357.02 184.143ZM357.025 182.984C357.456 182.984 357.813 182.871 358.096 182.643C358.379 182.415 358.588 182.112 358.724 181.733C358.862 181.355 358.931 180.938 358.931 180.482C358.931 180.03 358.862 179.614 358.724 179.236C358.588 178.854 358.379 178.548 358.096 178.317C357.813 178.086 357.456 177.971 357.025 177.971C356.591 177.971 356.231 178.086 355.945 178.317C355.661 178.548 355.451 178.854 355.312 179.236C355.177 179.614 355.109 180.03 355.109 180.482C355.109 180.938 355.177 181.355 355.312 181.733C355.451 182.112 355.661 182.415 355.945 182.643C356.231 182.871 356.591 182.984 357.025 182.984ZM365.241 176.909V178.017H361.234V176.909H365.241ZM362.333 184V176.087C362.333 175.644 362.43 175.276 362.623 174.984C362.817 174.689 363.074 174.469 363.394 174.324C363.715 174.176 364.062 174.102 364.438 174.102C364.715 174.102 364.952 174.125 365.149 174.172C365.346 174.215 365.492 174.255 365.587 174.292L365.264 175.409C365.199 175.39 365.116 175.369 365.015 175.344C364.913 175.316 364.79 175.303 364.646 175.303C364.31 175.303 364.07 175.386 363.925 175.552C363.784 175.718 363.713 175.958 363.713 176.272V184H362.333ZM369.975 176.909V178.017H366.102V176.909H369.975ZM367.141 175.21H368.521V181.918C368.521 182.186 368.561 182.387 368.641 182.523C368.721 182.655 368.824 182.746 368.95 182.795C369.08 182.841 369.22 182.864 369.37 182.864C369.481 182.864 369.578 182.857 369.661 182.841C369.744 182.826 369.809 182.814 369.855 182.804L370.104 183.945C370.024 183.975 369.911 184.006 369.763 184.037C369.615 184.071 369.43 184.089 369.209 184.092C368.846 184.098 368.507 184.034 368.193 183.898C367.879 183.763 367.625 183.554 367.432 183.271C367.238 182.987 367.141 182.632 367.141 182.204V175.21ZM373.039 184L370.953 176.909H372.379L373.769 182.116H373.838L375.232 176.909H376.659L378.044 182.093H378.113L379.493 176.909H380.92L378.838 184H377.43L375.989 178.88H375.883L374.443 184H373.039ZM384.293 184.157C383.844 184.157 383.438 184.074 383.074 183.908C382.711 183.738 382.424 183.494 382.211 183.174C382.002 182.854 381.897 182.461 381.897 181.996C381.897 181.596 381.974 181.267 382.128 181.009C382.282 180.75 382.49 180.545 382.751 180.395C383.013 180.244 383.305 180.13 383.628 180.053C383.952 179.976 384.281 179.917 384.616 179.877C385.041 179.828 385.386 179.788 385.65 179.757C385.915 179.724 386.108 179.67 386.228 179.596C386.348 179.522 386.408 179.402 386.408 179.236V179.203C386.408 178.8 386.294 178.488 386.066 178.266C385.841 178.045 385.506 177.934 385.06 177.934C384.595 177.934 384.229 178.037 383.961 178.243C383.696 178.446 383.513 178.673 383.411 178.922L382.114 178.626C382.268 178.196 382.493 177.848 382.788 177.583C383.087 177.315 383.43 177.121 383.818 177.001C384.206 176.878 384.613 176.817 385.041 176.817C385.324 176.817 385.624 176.851 385.941 176.918C386.261 176.983 386.56 177.103 386.837 177.278C387.117 177.454 387.346 177.705 387.525 178.031C387.703 178.354 387.793 178.774 387.793 179.291V184H386.445V183.031H386.389C386.3 183.209 386.166 183.384 385.987 183.557C385.809 183.729 385.58 183.872 385.3 183.986C385.02 184.1 384.684 184.157 384.293 184.157ZM384.593 183.049C384.975 183.049 385.301 182.974 385.572 182.823C385.846 182.672 386.054 182.475 386.195 182.232C386.34 181.986 386.412 181.723 386.412 181.442V180.528C386.363 180.578 386.268 180.624 386.126 180.667C385.987 180.707 385.829 180.742 385.65 180.773C385.472 180.801 385.298 180.827 385.129 180.852C384.96 180.873 384.818 180.892 384.704 180.907C384.436 180.941 384.192 180.998 383.97 181.078C383.752 181.158 383.576 181.273 383.444 181.424C383.315 181.572 383.25 181.769 383.25 182.015C383.25 182.357 383.376 182.615 383.628 182.79C383.881 182.963 384.202 183.049 384.593 183.049ZM389.631 184V176.909H390.965V178.036H391.039C391.168 177.654 391.396 177.354 391.722 177.135C392.052 176.914 392.424 176.803 392.839 176.803C392.926 176.803 393.027 176.806 393.144 176.812C393.264 176.818 393.358 176.826 393.426 176.835V178.156C393.37 178.14 393.272 178.123 393.13 178.105C392.989 178.083 392.847 178.072 392.706 178.072C392.379 178.072 392.089 178.142 391.833 178.28C391.581 178.416 391.381 178.605 391.233 178.848C391.085 179.088 391.011 179.362 391.011 179.67V184H389.631ZM397.422 184.143C396.724 184.143 396.122 183.994 395.617 183.695C395.116 183.394 394.728 182.971 394.454 182.426C394.183 181.878 394.048 181.236 394.048 180.501C394.048 179.774 394.183 179.134 394.454 178.58C394.728 178.026 395.11 177.594 395.599 177.283C396.091 176.972 396.667 176.817 397.326 176.817C397.726 176.817 398.113 176.883 398.489 177.015C398.864 177.148 399.201 177.355 399.5 177.638C399.798 177.922 400.034 178.289 400.206 178.742C400.379 179.191 400.465 179.737 400.465 180.381V180.87H394.828V179.836H399.112C399.112 179.473 399.038 179.151 398.891 178.871C398.743 178.588 398.535 178.365 398.267 178.202C398.003 178.039 397.692 177.957 397.335 177.957C396.947 177.957 396.608 178.052 396.319 178.243C396.033 178.431 395.811 178.677 395.654 178.982C395.501 179.283 395.424 179.611 395.424 179.965V180.773C395.424 181.247 395.507 181.65 395.673 181.983C395.842 182.315 396.078 182.569 396.379 182.744C396.681 182.917 397.033 183.003 397.436 183.003C397.698 183.003 397.936 182.966 398.152 182.892C398.367 182.815 398.554 182.701 398.71 182.55C398.867 182.4 398.987 182.213 399.071 181.992L400.377 182.227C400.272 182.612 400.085 182.949 399.814 183.238C399.546 183.525 399.209 183.748 398.803 183.908C398.4 184.065 397.94 184.143 397.422 184.143ZM405.547 184V174.545H411.475V175.773H406.974V178.654H411.166V179.877H406.974V182.772H411.53V184H405.547ZM414.65 179.79V184H413.27V176.909H414.595V178.063H414.682C414.845 177.688 415.101 177.386 415.449 177.158C415.8 176.931 416.241 176.817 416.774 176.817C417.257 176.817 417.68 176.918 418.043 177.121C418.406 177.321 418.688 177.62 418.888 178.017C419.088 178.414 419.188 178.905 419.188 179.49V184H417.808V179.656C417.808 179.142 417.674 178.74 417.406 178.451C417.138 178.159 416.771 178.012 416.303 178.012C415.983 178.012 415.698 178.082 415.449 178.22C415.202 178.359 415.007 178.562 414.862 178.83C414.721 179.094 414.65 179.414 414.65 179.79ZM424.012 186.807C423.449 186.807 422.964 186.733 422.558 186.585C422.155 186.438 421.826 186.242 421.57 185.999C421.315 185.756 421.124 185.49 420.998 185.2L422.184 184.711C422.267 184.846 422.378 184.989 422.517 185.14C422.658 185.294 422.849 185.425 423.089 185.533C423.332 185.64 423.644 185.694 424.026 185.694C424.549 185.694 424.982 185.567 425.323 185.311C425.665 185.059 425.836 184.656 425.836 184.102V182.707H425.748C425.665 182.858 425.545 183.026 425.388 183.211C425.234 183.395 425.022 183.555 424.751 183.691C424.48 183.826 424.128 183.894 423.694 183.894C423.134 183.894 422.629 183.763 422.18 183.501C421.733 183.237 421.379 182.847 421.118 182.333C420.859 181.816 420.73 181.181 420.73 180.427C420.73 179.673 420.858 179.027 421.113 178.488C421.372 177.949 421.726 177.537 422.175 177.251C422.624 176.961 423.134 176.817 423.703 176.817C424.143 176.817 424.499 176.891 424.769 177.038C425.04 177.183 425.251 177.352 425.402 177.546C425.556 177.74 425.674 177.911 425.757 178.059H425.859V176.909H427.211V184.157C427.211 184.766 427.07 185.266 426.787 185.657C426.504 186.048 426.12 186.337 425.637 186.525C425.157 186.713 424.615 186.807 424.012 186.807ZM423.998 182.749C424.395 182.749 424.731 182.657 425.005 182.472C425.282 182.284 425.491 182.016 425.633 181.669C425.777 181.318 425.85 180.898 425.85 180.408C425.85 179.931 425.779 179.511 425.637 179.148C425.496 178.785 425.288 178.502 425.014 178.299C424.74 178.092 424.402 177.989 423.998 177.989C423.583 177.989 423.237 178.097 422.96 178.312C422.683 178.525 422.473 178.814 422.332 179.18C422.193 179.547 422.124 179.956 422.124 180.408C422.124 180.873 422.195 181.281 422.336 181.632C422.478 181.983 422.687 182.257 422.964 182.453C423.244 182.65 423.589 182.749 423.998 182.749ZM429.063 184V176.909H430.443V184H429.063ZM429.76 175.815C429.52 175.815 429.314 175.735 429.141 175.575C428.972 175.412 428.887 175.218 428.887 174.993C428.887 174.766 428.972 174.572 429.141 174.412C429.314 174.248 429.52 174.167 429.76 174.167C430 174.167 430.204 174.248 430.374 174.412C430.546 174.572 430.632 174.766 430.632 174.993C430.632 175.218 430.546 175.412 430.374 175.575C430.204 175.735 430 175.815 429.76 175.815ZM433.68 179.79V184H432.3V176.909H433.625V178.063H433.713C433.876 177.688 434.131 177.386 434.479 177.158C434.83 176.931 435.271 176.817 435.804 176.817C436.287 176.817 436.71 176.918 437.073 177.121C437.437 177.321 437.718 177.62 437.918 178.017C438.118 178.414 438.218 178.905 438.218 179.49V184H436.838V179.656C436.838 179.142 436.704 178.74 436.436 178.451C436.169 178.159 435.801 178.012 435.333 178.012C435.013 178.012 434.728 178.082 434.479 178.22C434.233 178.359 434.037 178.562 433.893 178.83C433.751 179.094 433.68 179.414 433.68 179.79ZM443.126 184.143C442.427 184.143 441.825 183.994 441.321 183.695C440.819 183.394 440.431 182.971 440.157 182.426C439.886 181.878 439.751 181.236 439.751 180.501C439.751 179.774 439.886 179.134 440.157 178.58C440.431 178.026 440.813 177.594 441.302 177.283C441.795 176.972 442.37 176.817 443.029 176.817C443.429 176.817 443.817 176.883 444.192 177.015C444.568 177.148 444.905 177.355 445.203 177.638C445.502 177.922 445.737 178.289 445.909 178.742C446.082 179.191 446.168 179.737 446.168 180.381V180.87H440.531V179.836H444.815C444.815 179.473 444.741 179.151 444.594 178.871C444.446 178.588 444.238 178.365 443.97 178.202C443.706 178.039 443.395 177.957 443.038 177.957C442.65 177.957 442.312 178.052 442.022 178.243C441.736 178.431 441.514 178.677 441.358 178.982C441.204 179.283 441.127 179.611 441.127 179.965V180.773C441.127 181.247 441.21 181.65 441.376 181.983C441.545 182.315 441.781 182.569 442.082 182.744C442.384 182.917 442.736 183.003 443.139 183.003C443.401 183.003 443.64 182.966 443.855 182.892C444.07 182.815 444.257 182.701 444.414 182.55C444.571 182.4 444.691 182.213 444.774 181.992L446.08 182.227C445.976 182.612 445.788 182.949 445.517 183.238C445.249 183.525 444.912 183.748 444.506 183.908C444.103 184.065 443.643 184.143 443.126 184.143ZM450.756 184.143C450.057 184.143 449.455 183.994 448.95 183.695C448.449 183.394 448.061 182.971 447.787 182.426C447.516 181.878 447.381 181.236 447.381 180.501C447.381 179.774 447.516 179.134 447.787 178.58C448.061 178.026 448.443 177.594 448.932 177.283C449.424 176.972 450 176.817 450.659 176.817C451.059 176.817 451.446 176.883 451.822 177.015C452.197 177.148 452.534 177.355 452.833 177.638C453.131 177.922 453.367 178.289 453.539 178.742C453.712 179.191 453.798 179.737 453.798 180.381V180.87H448.161V179.836H452.445C452.445 179.473 452.371 179.151 452.224 178.871C452.076 178.588 451.868 178.365 451.6 178.202C451.336 178.039 451.025 177.957 450.668 177.957C450.28 177.957 449.941 178.052 449.652 178.243C449.366 178.431 449.144 178.677 448.987 178.982C448.834 179.283 448.757 179.611 448.757 179.965V180.773C448.757 181.247 448.84 181.65 449.006 181.983C449.175 182.315 449.411 182.569 449.712 182.744C450.014 182.917 450.366 183.003 450.769 183.003C451.031 183.003 451.269 182.966 451.485 182.892C451.7 182.815 451.887 182.701 452.044 182.55C452.2 182.4 452.32 182.213 452.404 181.992L453.71 182.227C453.605 182.612 453.418 182.949 453.147 183.238C452.879 183.525 452.542 183.748 452.136 183.908C451.733 184.065 451.273 184.143 450.756 184.143ZM455.329 184V176.909H456.663V178.036H456.737C456.867 177.654 457.094 177.354 457.421 177.135C457.75 176.914 458.122 176.803 458.538 176.803C458.624 176.803 458.725 176.806 458.842 176.812C458.962 176.818 459.056 176.826 459.124 176.835V178.156C459.069 178.14 458.97 178.123 458.829 178.105C458.687 178.083 458.545 178.072 458.404 178.072C458.078 178.072 457.787 178.142 457.531 178.28C457.279 178.416 457.079 178.605 456.931 178.848C456.783 179.088 456.71 179.362 456.71 179.67V184H455.329ZM464.668 180.782C464.416 180.782 464.199 180.693 464.017 180.515C463.836 180.333 463.745 180.114 463.745 179.859C463.745 179.607 463.836 179.391 464.017 179.213C464.199 179.031 464.416 178.94 464.668 178.94C464.921 178.94 465.138 179.031 465.319 179.213C465.501 179.391 465.592 179.607 465.592 179.859C465.592 180.028 465.549 180.184 465.462 180.325C465.379 180.464 465.269 180.575 465.13 180.658C464.992 180.741 464.838 180.782 464.668 180.782ZM470.992 184V174.545H476.855V175.773H472.418V178.654H476.435V179.877H472.418V184H470.992ZM482.546 181.059V176.909H483.931V184H482.573V182.772H482.5C482.336 183.151 482.075 183.466 481.715 183.718C481.358 183.968 480.913 184.092 480.381 184.092C479.925 184.092 479.522 183.992 479.171 183.792C478.823 183.589 478.549 183.289 478.349 182.892C478.152 182.495 478.054 182.004 478.054 181.419V176.909H479.434V181.253C479.434 181.736 479.568 182.121 479.836 182.407C480.104 182.694 480.451 182.837 480.879 182.837C481.138 182.837 481.395 182.772 481.65 182.643C481.909 182.513 482.123 182.318 482.292 182.056C482.464 181.795 482.549 181.462 482.546 181.059ZM487.166 174.545V184H485.785V174.545H487.166ZM490.403 174.545V184H489.023V174.545H490.403ZM496.438 179.407V180.602H492.246V179.407H496.438ZM503.545 177.029C503.496 176.592 503.293 176.254 502.936 176.013C502.579 175.77 502.129 175.649 501.588 175.649C501.2 175.649 500.864 175.71 500.581 175.833C500.298 175.953 500.078 176.12 499.921 176.332C499.767 176.541 499.69 176.78 499.69 177.048C499.69 177.272 499.742 177.466 499.847 177.629C499.955 177.792 500.095 177.929 500.267 178.04C500.443 178.148 500.63 178.239 500.83 178.312C501.03 178.383 501.223 178.442 501.407 178.488L502.331 178.728C502.632 178.802 502.942 178.902 503.259 179.028C503.576 179.154 503.87 179.32 504.14 179.527C504.411 179.733 504.63 179.988 504.796 180.293C504.965 180.598 505.05 180.962 505.05 181.387C505.05 181.923 504.911 182.398 504.634 182.814C504.36 183.229 503.962 183.557 503.439 183.797C502.919 184.037 502.289 184.157 501.551 184.157C500.843 184.157 500.23 184.045 499.713 183.82C499.196 183.595 498.791 183.277 498.499 182.864C498.207 182.449 498.045 181.956 498.014 181.387H499.445C499.473 181.729 499.584 182.013 499.778 182.241C499.975 182.466 500.226 182.634 500.53 182.744C500.838 182.852 501.175 182.906 501.541 182.906C501.945 182.906 502.303 182.843 502.617 182.717C502.934 182.587 503.183 182.409 503.365 182.181C503.546 181.95 503.637 181.681 503.637 181.373C503.637 181.093 503.557 180.864 503.397 180.685C503.24 180.507 503.026 180.359 502.756 180.242C502.488 180.125 502.185 180.022 501.846 179.933L500.729 179.628C499.972 179.422 499.372 179.119 498.928 178.719C498.488 178.319 498.268 177.789 498.268 177.131C498.268 176.586 498.416 176.11 498.711 175.704C499.007 175.298 499.407 174.982 499.912 174.758C500.416 174.53 500.986 174.416 501.62 174.416C502.26 174.416 502.825 174.529 503.314 174.753C503.807 174.978 504.194 175.287 504.477 175.681C504.761 176.072 504.908 176.521 504.921 177.029H503.545ZM509.954 176.909V178.017H506.081V176.909H509.954ZM507.119 175.21H508.5V181.918C508.5 182.186 508.54 182.387 508.62 182.523C508.7 182.655 508.803 182.746 508.929 182.795C509.058 182.841 509.198 182.864 509.349 182.864C509.46 182.864 509.557 182.857 509.64 182.841C509.723 182.826 509.788 182.814 509.834 182.804L510.083 183.945C510.003 183.975 509.889 184.006 509.741 184.037C509.594 184.071 509.409 184.089 509.187 184.092C508.824 184.098 508.486 184.034 508.172 183.898C507.858 183.763 507.604 183.554 507.41 183.271C507.216 182.987 507.119 182.632 507.119 182.204V175.21ZM513.544 184.157C513.095 184.157 512.689 184.074 512.325 183.908C511.962 183.738 511.675 183.494 511.462 183.174C511.253 182.854 511.148 182.461 511.148 181.996C511.148 181.596 511.225 181.267 511.379 181.009C511.533 180.75 511.741 180.545 512.002 180.395C512.264 180.244 512.556 180.13 512.879 180.053C513.203 179.976 513.532 179.917 513.867 179.877C514.292 179.828 514.637 179.788 514.901 179.757C515.166 179.724 515.358 179.67 515.479 179.596C515.599 179.522 515.659 179.402 515.659 179.236V179.203C515.659 178.8 515.545 178.488 515.317 178.266C515.092 178.045 514.757 177.934 514.311 177.934C513.846 177.934 513.48 178.037 513.212 178.243C512.947 178.446 512.764 178.673 512.662 178.922L511.365 178.626C511.519 178.196 511.744 177.848 512.039 177.583C512.338 177.315 512.681 177.121 513.069 177.001C513.456 176.878 513.864 176.817 514.292 176.817C514.575 176.817 514.875 176.851 515.192 176.918C515.512 176.983 515.811 177.103 516.088 177.278C516.368 177.454 516.597 177.705 516.776 178.031C516.954 178.354 517.044 178.774 517.044 179.291V184H515.695V183.031H515.64C515.551 183.209 515.417 183.384 515.238 183.557C515.06 183.729 514.831 183.872 514.551 183.986C514.271 184.1 513.935 184.157 513.544 184.157ZM513.844 183.049C514.226 183.049 514.552 182.974 514.823 182.823C515.097 182.672 515.305 182.475 515.446 182.232C515.591 181.986 515.663 181.723 515.663 181.442V180.528C515.614 180.578 515.519 180.624 515.377 180.667C515.238 180.707 515.08 180.742 514.901 180.773C514.723 180.801 514.549 180.827 514.38 180.852C514.211 180.873 514.069 180.892 513.955 180.907C513.687 180.941 513.443 180.998 513.221 181.078C513.003 181.158 512.827 181.273 512.695 181.424C512.566 181.572 512.501 181.769 512.501 182.015C512.501 182.357 512.627 182.615 512.879 182.79C513.132 182.963 513.453 183.049 513.844 183.049ZM521.869 184.143C521.183 184.143 520.592 183.988 520.096 183.677C519.604 183.363 519.225 182.931 518.96 182.38C518.696 181.829 518.563 181.198 518.563 180.487C518.563 179.767 518.699 179.131 518.97 178.58C519.241 178.026 519.622 177.594 520.115 177.283C520.607 176.972 521.187 176.817 521.855 176.817C522.394 176.817 522.874 176.917 523.295 177.117C523.717 177.314 524.057 177.591 524.316 177.948C524.577 178.305 524.733 178.722 524.782 179.199H523.438C523.365 178.866 523.195 178.58 522.931 178.34C522.669 178.1 522.318 177.98 521.878 177.98C521.493 177.98 521.156 178.082 520.867 178.285C520.581 178.485 520.358 178.771 520.198 179.143C520.038 179.513 519.958 179.95 519.958 180.455C519.958 180.972 520.036 181.418 520.193 181.793C520.35 182.169 520.572 182.46 520.858 182.666C521.147 182.872 521.487 182.975 521.878 182.975C522.14 182.975 522.377 182.927 522.589 182.832C522.804 182.734 522.985 182.594 523.129 182.412C523.277 182.23 523.38 182.012 523.438 181.756H524.782C524.733 182.215 524.583 182.624 524.334 182.984C524.085 183.344 523.751 183.628 523.332 183.834C522.917 184.04 522.429 184.143 521.869 184.143ZM527.528 181.595L527.518 179.91H527.758L530.584 176.909H532.236L529.014 180.325H528.797L527.528 181.595ZM526.258 184V174.545H527.638V184H526.258ZM530.736 184L528.197 180.63L529.148 179.665L532.43 184H530.736ZM537.046 184V174.545H542.973V175.773H538.472V178.654H542.664V179.877H538.472V182.772H543.028V184H537.046ZM546.148 179.79V184H544.768V176.909H546.093V178.063H546.18C546.344 177.688 546.599 177.386 546.947 177.158C547.298 176.931 547.739 176.817 548.272 176.817C548.755 176.817 549.178 176.918 549.541 177.121C549.904 177.321 550.186 177.62 550.386 178.017C550.586 178.414 550.686 178.905 550.686 179.49V184H549.306V179.656C549.306 179.142 549.172 178.74 548.904 178.451C548.636 178.159 548.269 178.012 547.801 178.012C547.481 178.012 547.196 178.082 546.947 178.22C546.701 178.359 546.505 178.562 546.36 178.83C546.219 179.094 546.148 179.414 546.148 179.79ZM555.51 186.807C554.947 186.807 554.462 186.733 554.056 186.585C553.653 186.438 553.324 186.242 553.068 185.999C552.813 185.756 552.622 185.49 552.496 185.2L553.682 184.711C553.765 184.846 553.876 184.989 554.015 185.14C554.156 185.294 554.347 185.425 554.587 185.533C554.83 185.64 555.143 185.694 555.524 185.694C556.047 185.694 556.48 185.567 556.821 185.311C557.163 185.059 557.334 184.656 557.334 184.102V182.707H557.246C557.163 182.858 557.043 183.026 556.886 183.211C556.732 183.395 556.52 183.555 556.249 183.691C555.978 183.826 555.626 183.894 555.192 183.894C554.632 183.894 554.127 183.763 553.678 183.501C553.231 183.237 552.877 182.847 552.616 182.333C552.357 181.816 552.228 181.181 552.228 180.427C552.228 179.673 552.356 179.027 552.611 178.488C552.87 177.949 553.224 177.537 553.673 177.251C554.122 176.961 554.632 176.817 555.201 176.817C555.641 176.817 555.997 176.891 556.267 177.038C556.538 177.183 556.749 177.352 556.9 177.546C557.054 177.74 557.172 177.911 557.255 178.059H557.357V176.909H558.71V184.157C558.71 184.766 558.568 185.266 558.285 185.657C558.002 186.048 557.618 186.337 557.135 186.525C556.655 186.713 556.114 186.807 555.51 186.807ZM555.496 182.749C555.893 182.749 556.229 182.657 556.503 182.472C556.78 182.284 556.989 182.016 557.131 181.669C557.275 181.318 557.348 180.898 557.348 180.408C557.348 179.931 557.277 179.511 557.135 179.148C556.994 178.785 556.786 178.502 556.512 178.299C556.238 178.092 555.9 177.989 555.496 177.989C555.081 177.989 554.735 178.097 554.458 178.312C554.181 178.525 553.971 178.814 553.83 179.18C553.691 179.547 553.622 179.956 553.622 180.408C553.622 180.873 553.693 181.281 553.835 181.632C553.976 181.983 554.185 182.257 554.462 182.453C554.742 182.65 555.087 182.749 555.496 182.749ZM560.561 184V176.909H561.941V184H560.561ZM561.258 175.815C561.018 175.815 560.812 175.735 560.639 175.575C560.47 175.412 560.385 175.218 560.385 174.993C560.385 174.766 560.47 174.572 560.639 174.412C560.812 174.248 561.018 174.167 561.258 174.167C561.498 174.167 561.703 174.248 561.872 174.412C562.044 174.572 562.13 174.766 562.13 174.993C562.13 175.218 562.044 175.412 561.872 175.575C561.703 175.735 561.498 175.815 561.258 175.815ZM565.178 179.79V184H563.798V176.909H565.123V178.063H565.211C565.374 177.688 565.629 177.386 565.977 177.158C566.328 176.931 566.77 176.817 567.302 176.817C567.785 176.817 568.208 176.918 568.571 177.121C568.935 177.321 569.216 177.62 569.416 178.017C569.616 178.414 569.716 178.905 569.716 179.49V184H568.336V179.656C568.336 179.142 568.202 178.74 567.934 178.451C567.667 178.159 567.299 178.012 566.831 178.012C566.511 178.012 566.226 178.082 565.977 178.22C565.731 178.359 565.535 178.562 565.391 178.83C565.249 179.094 565.178 179.414 565.178 179.79ZM574.624 184.143C573.925 184.143 573.323 183.994 572.819 183.695C572.317 183.394 571.929 182.971 571.655 182.426C571.384 181.878 571.249 181.236 571.249 180.501C571.249 179.774 571.384 179.134 571.655 178.58C571.929 178.026 572.311 177.594 572.8 177.283C573.293 176.972 573.868 176.817 574.527 176.817C574.927 176.817 575.315 176.883 575.69 177.015C576.066 177.148 576.403 177.355 576.701 177.638C577 177.922 577.235 178.289 577.407 178.742C577.58 179.191 577.666 179.737 577.666 180.381V180.87H572.029V179.836H576.313C576.313 179.473 576.239 179.151 576.092 178.871C575.944 178.588 575.736 178.365 575.468 178.202C575.204 178.039 574.893 177.957 574.536 177.957C574.148 177.957 573.81 178.052 573.52 178.243C573.234 178.431 573.013 178.677 572.856 178.982C572.702 179.283 572.625 179.611 572.625 179.965V180.773C572.625 181.247 572.708 181.65 572.874 181.983C573.043 182.315 573.279 182.569 573.58 182.744C573.882 182.917 574.234 183.003 574.638 183.003C574.899 183.003 575.138 182.966 575.353 182.892C575.569 182.815 575.755 182.701 575.912 182.55C576.069 182.4 576.189 182.213 576.272 181.992L577.578 182.227C577.474 182.612 577.286 182.949 577.015 183.238C576.747 183.525 576.41 183.748 576.004 183.908C575.601 184.065 575.141 184.143 574.624 184.143ZM582.254 184.143C581.555 184.143 580.953 183.994 580.449 183.695C579.947 183.394 579.559 182.971 579.285 182.426C579.014 181.878 578.879 181.236 578.879 180.501C578.879 179.774 579.014 179.134 579.285 178.58C579.559 178.026 579.941 177.594 580.43 177.283C580.922 176.972 581.498 176.817 582.157 176.817C582.557 176.817 582.944 176.883 583.32 177.015C583.695 177.148 584.032 177.355 584.331 177.638C584.629 177.922 584.865 178.289 585.037 178.742C585.21 179.191 585.296 179.737 585.296 180.381V180.87H579.659V179.836H583.943C583.943 179.473 583.869 179.151 583.722 178.871C583.574 178.588 583.366 178.365 583.098 178.202C582.834 178.039 582.523 177.957 582.166 177.957C581.778 177.957 581.44 178.052 581.15 178.243C580.864 178.431 580.642 178.677 580.485 178.982C580.332 179.283 580.255 179.611 580.255 179.965V180.773C580.255 181.247 580.338 181.65 580.504 181.983C580.673 182.315 580.909 182.569 581.21 182.744C581.512 182.917 581.864 183.003 582.267 183.003C582.529 183.003 582.768 182.966 582.983 182.892C583.198 182.815 583.385 182.701 583.542 182.55C583.699 182.4 583.819 182.213 583.902 181.992L585.208 182.227C585.103 182.612 584.916 182.949 584.645 183.238C584.377 183.525 584.04 183.748 583.634 183.908C583.231 184.065 582.771 184.143 582.254 184.143ZM586.827 184V176.909H588.161V178.036H588.235C588.365 177.654 588.592 177.354 588.919 177.135C589.248 176.914 589.62 176.803 590.036 176.803C590.122 176.803 590.224 176.806 590.34 176.812C590.46 176.818 590.554 176.826 590.622 176.835V178.156C590.567 178.14 590.468 178.123 590.327 178.105C590.185 178.083 590.043 178.072 589.902 178.072C589.576 178.072 589.285 178.142 589.029 178.28C588.777 178.416 588.577 178.605 588.429 178.848C588.282 179.088 588.208 179.362 588.208 179.67V184H586.827ZM596.166 180.782C595.914 180.782 595.697 180.693 595.516 180.515C595.334 180.333 595.243 180.114 595.243 179.859C595.243 179.607 595.334 179.391 595.516 179.213C595.697 179.031 595.914 178.94 596.166 178.94C596.419 178.94 596.636 179.031 596.817 179.213C596.999 179.391 597.09 179.607 597.09 179.859C597.09 180.028 597.047 180.184 596.96 180.325C596.877 180.464 596.767 180.575 596.628 180.658C596.49 180.741 596.336 180.782 596.166 180.782ZM605.551 184H602.49V174.545H605.648C606.574 174.545 607.369 174.735 608.034 175.113C608.699 175.489 609.208 176.029 609.562 176.734C609.919 177.435 610.098 178.277 610.098 179.259C610.098 180.244 609.918 181.09 609.558 181.798C609.201 182.506 608.684 183.051 608.007 183.432C607.329 183.811 606.511 184 605.551 184ZM603.916 182.754H605.472C606.192 182.754 606.791 182.618 607.268 182.347C607.745 182.073 608.102 181.678 608.339 181.161C608.576 180.641 608.694 180.007 608.694 179.259C608.694 178.517 608.576 177.888 608.339 177.371C608.105 176.854 607.756 176.461 607.291 176.194C606.826 175.926 606.249 175.792 605.56 175.792H603.916V182.754ZM614.817 184.143C614.118 184.143 613.517 183.994 613.012 183.695C612.51 183.394 612.123 182.971 611.849 182.426C611.578 181.878 611.442 181.236 611.442 180.501C611.442 179.774 611.578 179.134 611.849 178.58C612.123 178.026 612.504 177.594 612.994 177.283C613.486 176.972 614.061 176.817 614.72 176.817C615.12 176.817 615.508 176.883 615.883 177.015C616.259 177.148 616.596 177.355 616.894 177.638C617.193 177.922 617.428 178.289 617.601 178.742C617.773 179.191 617.859 179.737 617.859 180.381V180.87H612.223V179.836H616.507C616.507 179.473 616.433 179.151 616.285 178.871C616.137 178.588 615.93 178.365 615.662 178.202C615.397 178.039 615.086 177.957 614.729 177.957C614.342 177.957 614.003 178.052 613.714 178.243C613.427 178.431 613.206 178.677 613.049 178.982C612.895 179.283 612.818 179.611 612.818 179.965V180.773C612.818 181.247 612.901 181.65 613.067 181.983C613.237 182.315 613.472 182.569 613.774 182.744C614.075 182.917 614.428 183.003 614.831 183.003C615.092 183.003 615.331 182.966 615.546 182.892C615.762 182.815 615.948 182.701 616.105 182.55C616.262 182.4 616.382 182.213 616.465 181.992L617.772 182.227C617.667 182.612 617.479 182.949 617.208 183.238C616.941 183.525 616.604 183.748 616.197 183.908C615.794 184.065 615.334 184.143 614.817 184.143ZM625.254 176.909L622.682 184H621.205L618.629 176.909H620.111L621.907 182.366H621.981L623.772 176.909H625.254ZM634.874 179.273C634.874 180.282 634.69 181.15 634.32 181.876C633.951 182.6 633.445 183.157 632.802 183.548C632.162 183.935 631.434 184.129 630.618 184.129C629.799 184.129 629.068 183.935 628.425 183.548C627.785 183.157 627.28 182.598 626.911 181.872C626.542 181.145 626.357 180.279 626.357 179.273C626.357 178.263 626.542 177.397 626.911 176.674C627.28 175.947 627.785 175.39 628.425 175.002C629.068 174.612 629.799 174.416 630.618 174.416C631.434 174.416 632.162 174.612 632.802 175.002C633.445 175.39 633.951 175.947 634.32 176.674C634.69 177.397 634.874 178.263 634.874 179.273ZM633.462 179.273C633.462 178.503 633.337 177.855 633.088 177.329C632.842 176.8 632.503 176.4 632.072 176.129C631.644 175.855 631.16 175.718 630.618 175.718C630.073 175.718 629.587 175.855 629.159 176.129C628.731 176.4 628.393 176.8 628.144 177.329C627.897 177.855 627.774 178.503 627.774 179.273C627.774 180.042 627.897 180.692 628.144 181.221C628.393 181.747 628.731 182.147 629.159 182.421C629.587 182.692 630.073 182.827 630.618 182.827C631.16 182.827 631.644 182.692 632.072 182.421C632.503 182.147 632.842 181.747 633.088 181.221C633.337 180.692 633.462 180.042 633.462 179.273ZM636.542 186.659V176.909H637.89V178.059H638.006C638.086 177.911 638.201 177.74 638.352 177.546C638.503 177.352 638.712 177.183 638.98 177.038C639.247 176.891 639.601 176.817 640.041 176.817C640.614 176.817 641.125 176.961 641.574 177.251C642.023 177.54 642.376 177.957 642.631 178.502C642.89 179.047 643.019 179.702 643.019 180.468C643.019 181.235 642.891 181.892 642.636 182.44C642.38 182.984 642.03 183.404 641.583 183.7C641.137 183.992 640.628 184.138 640.055 184.138C639.624 184.138 639.272 184.066 638.998 183.922C638.727 183.777 638.515 183.608 638.361 183.414C638.207 183.22 638.089 183.047 638.006 182.897H637.922V186.659H636.542ZM637.895 180.455C637.895 180.953 637.967 181.39 638.112 181.766C638.256 182.141 638.466 182.435 638.74 182.647C639.014 182.857 639.349 182.961 639.746 182.961C640.158 182.961 640.503 182.852 640.78 182.634C641.057 182.412 641.266 182.112 641.408 181.733C641.553 181.355 641.625 180.929 641.625 180.455C641.625 179.987 641.554 179.567 641.413 179.194C641.274 178.822 641.065 178.528 640.785 178.312C640.508 178.097 640.161 177.989 639.746 177.989C639.346 177.989 639.007 178.092 638.73 178.299C638.456 178.505 638.249 178.793 638.107 179.162C637.966 179.531 637.895 179.962 637.895 180.455ZM649.879 178.64L648.628 178.862C648.576 178.702 648.493 178.549 648.379 178.405C648.268 178.26 648.117 178.142 647.926 178.049C647.736 177.957 647.497 177.911 647.211 177.911C646.82 177.911 646.494 177.999 646.232 178.174C645.971 178.346 645.84 178.569 645.84 178.843C645.84 179.08 645.927 179.271 646.103 179.416C646.278 179.56 646.561 179.679 646.952 179.771L648.079 180.03C648.731 180.181 649.217 180.413 649.538 180.727C649.858 181.041 650.018 181.449 650.018 181.95C650.018 182.375 649.895 182.754 649.648 183.086C649.405 183.415 649.065 183.674 648.628 183.862C648.194 184.049 647.691 184.143 647.119 184.143C646.324 184.143 645.677 183.974 645.175 183.635C644.673 183.294 644.366 182.809 644.252 182.181L645.586 181.978C645.669 182.326 645.84 182.589 646.098 182.767C646.357 182.943 646.694 183.031 647.109 183.031C647.562 183.031 647.923 182.937 648.194 182.749C648.465 182.558 648.6 182.326 648.6 182.052C648.6 181.83 648.517 181.644 648.351 181.493C648.188 181.342 647.937 181.229 647.599 181.152L646.398 180.888C645.737 180.738 645.247 180.498 644.93 180.168C644.616 179.839 644.459 179.422 644.459 178.917C644.459 178.499 644.576 178.132 644.81 177.819C645.044 177.505 645.367 177.26 645.78 177.085C646.192 176.906 646.665 176.817 647.197 176.817C647.963 176.817 648.567 176.983 649.007 177.315C649.447 177.645 649.738 178.086 649.879 178.64Z" fill="#94A3B8"/>
<path d="M204.125 100.364V144H193.578V100.364H204.125ZM219.418 100.364V105.222C219.418 106.571 219.148 107.935 218.608 109.312C218.083 110.676 217.394 111.955 216.541 113.148C215.689 114.341 214.787 115.349 213.835 116.173L209.404 113.744C210.057 112.665 210.639 111.45 211.151 110.101C211.662 108.737 211.918 107.118 211.918 105.243V100.364H219.418ZM223.988 144V111.273H233.896V117.281H234.258C234.94 115.293 236.09 113.723 237.71 112.572C239.329 111.422 241.261 110.847 243.505 110.847C245.778 110.847 247.724 111.429 249.343 112.594C250.963 113.759 251.992 115.321 252.433 117.281H252.774C253.384 115.335 254.578 113.78 256.353 112.615C258.129 111.436 260.224 110.847 262.639 110.847C265.735 110.847 268.249 111.841 270.181 113.83C272.113 115.804 273.079 118.517 273.079 121.969V144H262.66V124.355C262.66 122.722 262.241 121.479 261.403 120.626C260.565 119.76 259.478 119.327 258.143 119.327C256.708 119.327 255.579 119.795 254.755 120.733C253.945 121.656 253.541 122.899 253.541 124.462V144H243.526V124.249C243.526 122.729 243.115 121.528 242.291 120.648C241.467 119.767 240.38 119.327 239.031 119.327C238.122 119.327 237.319 119.547 236.623 119.987C235.927 120.413 235.38 121.024 234.982 121.82C234.599 122.615 234.407 123.553 234.407 124.632V144H223.988ZM522.816 100.364H535.877L546.957 127.381H547.468L558.548 100.364H571.609V144H561.339V117.196H560.977L550.494 143.723H543.931L533.448 117.047H533.086V144H522.816V100.364ZM599.302 129.874V111.273H609.7V144H599.771V137.906H599.43C598.706 139.909 597.47 141.5 595.723 142.679C593.99 143.844 591.895 144.426 589.437 144.426C587.207 144.426 585.247 143.915 583.557 142.892C581.866 141.869 580.552 140.442 579.615 138.609C578.677 136.763 578.202 134.604 578.187 132.132V111.273H588.606V130.087C588.621 131.862 589.089 133.261 590.013 134.284C590.936 135.307 592.193 135.818 593.784 135.818C594.821 135.818 595.751 135.591 596.575 135.136C597.413 134.668 598.074 133.993 598.557 133.112C599.054 132.217 599.302 131.138 599.302 129.874ZM616.332 144V111.273H626.24V117.281H626.602C627.284 115.293 628.434 113.723 630.053 112.572C631.673 111.422 633.605 110.847 635.849 110.847C638.122 110.847 640.068 111.429 641.687 112.594C643.306 113.759 644.336 115.321 644.776 117.281H645.117C645.728 115.335 646.921 113.78 648.697 112.615C650.472 111.436 652.568 110.847 654.982 110.847C658.079 110.847 660.593 111.841 662.525 113.83C664.457 115.804 665.423 118.517 665.423 121.969V144H655.004V124.355C655.004 122.722 654.585 121.479 653.747 120.626C652.909 119.76 651.822 119.327 650.487 119.327C649.052 119.327 647.923 119.795 647.099 120.733C646.289 121.656 645.884 122.899 645.884 124.462V144H635.87V124.249C635.87 122.729 635.458 121.528 634.634 120.648C633.811 119.767 632.724 119.327 631.374 119.327C630.465 119.327 629.663 119.547 628.967 119.987C628.271 120.413 627.724 121.024 627.326 121.82C626.943 122.615 626.751 123.553 626.751 124.632V144H616.332ZM687.156 144.618C683.718 144.618 680.764 143.915 678.292 142.509C675.835 141.088 673.938 139.114 672.603 136.585C671.282 134.043 670.622 131.095 670.622 127.743C670.622 124.376 671.282 121.429 672.603 118.901C673.938 116.358 675.835 114.384 678.292 112.977C680.764 111.557 683.718 110.847 687.156 110.847C690.593 110.847 693.541 111.557 695.998 112.977C698.47 114.384 700.366 116.358 701.687 118.901C703.022 121.429 703.69 124.376 703.69 127.743C703.69 131.095 703.022 134.043 701.687 136.585C700.366 139.114 698.47 141.088 695.998 142.509C693.541 143.915 690.593 144.618 687.156 144.618ZM687.22 136.756C688.47 136.756 689.528 136.372 690.394 135.605C691.261 134.838 691.921 133.773 692.376 132.409C692.845 131.045 693.079 129.469 693.079 127.679C693.079 125.861 692.845 124.27 692.376 122.906C691.921 121.543 691.261 120.477 690.394 119.71C689.528 118.943 688.47 118.56 687.22 118.56C685.927 118.56 684.833 118.943 683.938 119.71C683.058 120.477 682.383 121.543 681.914 122.906C681.46 124.27 681.232 125.861 681.232 127.679C681.232 129.469 681.46 131.045 681.914 132.409C682.383 133.773 683.058 134.838 683.938 135.605C684.833 136.372 685.927 136.756 687.22 136.756Z" fill="#CBD5E1"/>
<path d="M301.865 144H290.529L305.252 100.364H319.294L334.017 144H322.681L312.433 111.358H312.092L301.865 144ZM300.352 126.827H324.045V134.838H300.352V126.827ZM349.134 125.335V144H338.715V111.273H348.622V117.281H348.985C349.709 115.278 350.945 113.709 352.692 112.572C354.439 111.422 356.52 110.847 358.935 110.847C361.236 110.847 363.232 111.365 364.922 112.402C366.627 113.425 367.948 114.859 368.885 116.706C369.837 118.538 370.306 120.683 370.291 123.141V144H359.872V125.186C359.887 123.368 359.425 121.947 358.487 120.925C357.564 119.902 356.279 119.391 354.631 119.391C353.537 119.391 352.571 119.632 351.733 120.115C350.909 120.584 350.27 121.259 349.816 122.139C349.375 123.02 349.148 124.085 349.134 125.335ZM395.215 111.273V118.943H374.569V111.273H395.215ZM378.894 103.432H389.313V133.709C389.313 134.348 389.412 134.866 389.611 135.264C389.824 135.648 390.13 135.925 390.528 136.095C390.925 136.251 391.401 136.33 391.955 136.33C392.353 136.33 392.772 136.294 393.212 136.223C393.667 136.138 394.008 136.067 394.235 136.01L395.812 143.531C395.314 143.673 394.611 143.851 393.702 144.064C392.807 144.277 391.735 144.412 390.485 144.469C388.042 144.582 385.947 144.298 384.199 143.616C382.466 142.92 381.138 141.841 380.215 140.378C379.306 138.915 378.866 137.075 378.894 134.859V103.432ZM415.456 144.618C412.019 144.618 409.064 143.915 406.593 142.509C404.135 141.088 402.239 139.114 400.904 136.585C399.583 134.043 398.922 131.095 398.922 127.743C398.922 124.376 399.583 121.429 400.904 118.901C402.239 116.358 404.135 114.384 406.593 112.977C409.064 111.557 412.019 110.847 415.456 110.847C418.894 110.847 421.841 111.557 424.299 112.977C426.77 114.384 428.667 116.358 429.988 118.901C431.323 121.429 431.991 124.376 431.991 127.743C431.991 131.095 431.323 134.043 429.988 136.585C428.667 139.114 426.77 141.088 424.299 142.509C421.841 143.915 418.894 144.618 415.456 144.618ZM415.52 136.756C416.77 136.756 417.829 136.372 418.695 135.605C419.562 134.838 420.222 133.773 420.677 132.409C421.145 131.045 421.38 129.469 421.38 127.679C421.38 125.861 421.145 124.27 420.677 122.906C420.222 121.543 419.562 120.477 418.695 119.71C417.829 118.943 416.77 118.56 415.52 118.56C414.228 118.56 413.134 118.943 412.239 119.71C411.358 120.477 410.684 121.543 410.215 122.906C409.76 124.27 409.533 125.861 409.533 127.679C409.533 129.469 409.76 131.045 410.215 132.409C410.684 133.773 411.358 134.838 412.239 135.605C413.134 136.372 414.228 136.756 415.52 136.756ZM447.747 125.335V144H437.328V111.273H447.236V117.281H447.598C448.322 115.278 449.558 113.709 451.305 112.572C453.052 111.422 455.133 110.847 457.548 110.847C459.849 110.847 461.845 111.365 463.535 112.402C465.24 113.425 466.561 114.859 467.498 116.706C468.45 118.538 468.919 120.683 468.905 123.141V144H458.486V125.186C458.5 123.368 458.038 121.947 457.101 120.925C456.177 119.902 454.892 119.391 453.244 119.391C452.15 119.391 451.184 119.632 450.346 120.115C449.523 120.584 448.883 121.259 448.429 122.139C447.988 123.02 447.761 124.085 447.747 125.335ZM480.554 156.273C479.304 156.273 478.125 156.173 477.017 155.974C475.909 155.79 474.958 155.541 474.162 155.229L476.463 147.665C477.486 148.006 478.409 148.205 479.233 148.261C480.071 148.318 480.789 148.183 481.385 147.857C481.996 147.544 482.465 146.983 482.791 146.173L483.196 145.193L471.563 111.273H482.472L488.502 134.625H488.843L494.958 111.273H505.931L493.594 147.132C492.997 148.922 492.152 150.499 491.058 151.862C489.979 153.24 488.58 154.32 486.861 155.101C485.156 155.882 483.054 156.273 480.554 156.273Z" fill="#01BF71"/>
<defs>
<linearGradient id="paint0_linear_6_71" x1="448" y1="0" x2="448" y2="288" gradientUnits="userSpaceOnUse">
<stop stop-color="#0F172A"/>
<stop offset="1" stop-color="#0F172A" stop-opacity="0"/>
</linearGradient>
<linearGradient id="paint1_linear_6_71" x1="448" y1="0" x2="448" y2="288" gradientUnits="userSpaceOnUse">
<stop/>
<stop offset="1" stop-opacity="0"/>
</linearGradient>
</defs>
</svg>
